<svg preserveAspectRatio="none" width="33" height="31" viewBox="0 0 33 31" fill="none" xmlns="http://www.w3.org/2000/svg">
<mask id="mask0_8_152" style="mask-type:alpha" maskUnits="userSpaceOnUse" x="0" y="0" width="33" height="31">
<rect y="0.128906" width="32.7623" height="30" fill="#001D34"/>
</mask>
<g mask="url(#mask0_8_152)">
<path d="M15.9715 22.6289C13.7873 22.5247 11.9445 21.7539 10.4428 20.3164C8.94124 18.8789 8.19044 17.1497 8.19044 15.1289C8.19044 13.0455 8.98675 11.2747 10.5794 9.81638C12.172 8.35805 14.1059 7.62888 16.381 7.62888C18.5879 7.62888 20.4763 8.31638 22.0462 9.69138C23.616 11.0664 24.4578 12.7539 24.5716 14.7539L21.7049 13.9726C21.4091 12.8476 20.7721 11.9258 19.7937 11.207C18.8154 10.4883 17.6779 10.1289 16.381 10.1289C14.8794 10.1289 13.5939 10.6185 12.5246 11.5976C11.4553 12.5768 10.9206 13.7539 10.9206 15.1289C10.9206 16.3164 11.3131 17.358 12.098 18.2539C12.883 19.1497 13.8897 19.733 15.1183 20.0039L15.9715 22.6289ZM17.6096 27.5664C17.4048 27.608 17.2001 27.6289 16.9953 27.6289H16.381C14.4926 27.6289 12.718 27.3008 11.0571 26.6445C9.39627 25.9883 7.95155 25.0976 6.72296 23.9726C5.49438 22.8476 4.52175 21.5247 3.80507 20.0039C3.0884 18.483 2.73006 16.858 2.73006 15.1289C2.73006 13.3997 3.0884 11.7747 3.80507 10.2539C4.52175 8.73305 5.49438 7.41013 6.72296 6.28513C7.95155 5.16013 9.39627 4.2695 11.0571 3.61325C12.718 2.957 14.4926 2.62888 16.381 2.62888C18.2694 2.62888 20.044 2.957 21.7049 3.61325C23.3657 4.2695 24.8105 5.16013 26.0391 6.28513C27.2676 7.41013 28.2403 8.73305 28.9569 10.2539C29.6736 11.7747 30.032 13.3997 30.032 15.1289V15.6914C30.032 15.8789 30.0092 16.0664 29.9637 16.2539L27.3018 15.5039V15.1289C27.3018 12.3372 26.2438 9.97263 24.1279 8.03513C22.012 6.09763 19.4297 5.12888 16.381 5.12888C13.3323 5.12888 10.75 6.09763 8.6341 8.03513C6.5182 9.97263 5.46025 12.3372 5.46025 15.1289C5.46025 17.9205 6.5182 20.2851 8.6341 22.2226C10.75 24.1601 13.3323 25.1289 16.381 25.1289H16.7905L17.6096 27.5664ZM28.0184 28.2539L22.1827 22.9101L20.4763 27.6289L16.381 15.1289L30.032 18.8789L24.8787 20.4414L30.7145 25.7851L28.0184 28.2539Z" fill="#001D34"/>
</g>
</svg>
