<svg preserveAspectRatio="none" width="48" height="45" viewBox="0 0 48 45" fill="none" xmlns="http://www.w3.org/2000/svg">
<path d="M11.9799 38.0744C10.8817 38.0744 9.94164 37.6985 9.15961 36.9466C8.37759 36.1948 7.98657 35.291 7.98657 34.2352C7.98657 33.1794 8.37759 32.2756 9.15961 31.5238C9.94164 30.7719 10.8817 30.396 11.9799 30.396C13.0781 30.396 14.0182 30.7719 14.8002 31.5238C15.5822 32.2756 15.9732 33.1794 15.9732 34.2352C15.9732 35.291 15.5822 36.1948 14.8002 36.9466C14.0182 37.6985 13.0781 38.0744 11.9799 38.0744ZM23.9599 38.0744C22.8617 38.0744 21.9216 37.6985 21.1396 36.9466C20.3576 36.1948 19.9666 35.291 19.9666 34.2352C19.9666 33.1794 20.3576 32.2756 21.1396 31.5238C21.9216 30.7719 22.8617 30.396 23.9599 30.396C25.0581 30.396 25.9982 30.7719 26.7802 31.5238C27.5622 32.2756 27.9532 33.1794 27.9532 34.2352C27.9532 35.291 27.5622 36.1948 26.7802 36.9466C25.9982 37.6985 25.0581 38.0744 23.9599 38.0744ZM35.9399 38.0744C34.8417 38.0744 33.9016 37.6985 33.1196 36.9466C32.3376 36.1948 31.9466 35.291 31.9466 34.2352C31.9466 33.1794 32.3376 32.2756 33.1196 31.5238C33.9016 30.7719 34.8417 30.396 35.9399 30.396C37.0381 30.396 37.9782 30.7719 38.7602 31.5238C39.5422 32.2756 39.9332 33.1794 39.9332 34.2352C39.9332 35.291 39.5422 36.1948 38.7602 36.9466C37.9782 37.6985 37.0381 38.0744 35.9399 38.0744ZM11.9799 26.5568C10.8817 26.5568 9.94164 26.1809 9.15961 25.4291C8.37759 24.6772 7.98657 23.7734 7.98657 22.7176C7.98657 21.6619 8.37759 20.758 9.15961 20.0062C9.94164 19.2544 10.8817 18.8784 11.9799 18.8784C13.0781 18.8784 14.0182 19.2544 14.8002 20.0062C15.5822 20.758 15.9732 21.6619 15.9732 22.7176C15.9732 23.7734 15.5822 24.6772 14.8002 25.4291C14.0182 26.1809 13.0781 26.5568 11.9799 26.5568ZM23.9599 26.5568C22.8617 26.5568 21.9216 26.1809 21.1396 25.4291C20.3576 24.6772 19.9666 23.7734 19.9666 22.7176C19.9666 21.6619 20.3576 20.758 21.1396 20.0062C21.9216 19.2544 22.8617 18.8784 23.9599 18.8784C25.0581 18.8784 25.9982 19.2544 26.7802 20.0062C27.5622 20.758 27.9532 21.6619 27.9532 22.7176C27.9532 23.7734 27.5622 24.6772 26.7802 25.4291C25.9982 26.1809 25.0581 26.5568 23.9599 26.5568ZM35.9399 26.5568C34.8417 26.5568 33.9016 26.1809 33.1196 25.4291C32.3376 24.6772 31.9466 23.7734 31.9466 22.7176C31.9466 21.6619 32.3376 20.758 33.1196 20.0062C33.9016 19.2544 34.8417 18.8784 35.9399 18.8784C37.0381 18.8784 37.9782 19.2544 38.7602 20.0062C39.5422 20.758 39.9332 21.6619 39.9332 22.7176C39.9332 23.7734 39.5422 24.6772 38.7602 25.4291C37.9782 26.1809 37.0381 26.5568 35.9399 26.5568ZM11.9799 15.0393C10.8817 15.0393 9.94164 14.6633 9.15961 13.9115C8.37759 13.1597 7.98657 12.2558 7.98657 11.2001C7.98657 10.1443 8.37759 9.24048 9.15961 8.48864C9.94164 7.73679 10.8817 7.36087 11.9799 7.36087C13.0781 7.36087 14.0182 7.73679 14.8002 8.48864C15.5822 9.24048 15.9732 10.1443 15.9732 11.2001C15.9732 12.2558 15.5822 13.1597 14.8002 13.9115C14.0182 14.6633 13.0781 15.0393 11.9799 15.0393ZM23.9599 15.0393C22.8617 15.0393 21.9216 14.6633 21.1396 13.9115C20.3576 13.1597 19.9666 12.2558 19.9666 11.2001C19.9666 10.1443 20.3576 9.24048 21.1396 8.48864C21.9216 7.73679 22.8617 7.36087 23.9599 7.36087C25.0581 7.36087 25.9982 7.73679 26.7802 8.48864C27.5622 9.24048 27.9532 10.1443 27.9532 11.2001C27.9532 12.2558 27.5622 13.1597 26.7802 13.9115C25.9982 14.6633 25.0581 15.0393 23.9599 15.0393ZM35.9399 15.0393C34.8417 15.0393 33.9016 14.6633 33.1196 13.9115C32.3376 13.1597 31.9466 12.2558 31.9466 11.2001C31.9466 10.1443 32.3376 9.24048 33.1196 8.48864C33.9016 7.73679 34.8417 7.36087 35.9399 7.36087C37.0381 7.36087 37.9782 7.73679 38.7602 8.48864C39.5422 9.24048 39.9332 10.1443 39.9332 11.2001C39.9332 12.2558 39.5422 13.1597 38.7602 13.9115C37.9782 14.6633 37.0381 15.0393 35.9399 15.0393Z" fill="white"/>
<mask id="mask0_8_175" style="mask-type:alpha" maskUnits="userSpaceOnUse" x="0" y="-1" width="48" height="46">
<rect y="-0.000476837" width="47.92" height="44.1718" fill="#D9D9D9"/>
</mask>
<g mask="url(#mask0_8_175)">
</g>
</svg>
