<svg preserveAspectRatio="none" width="40" height="48" viewBox="0 0 40 48" fill="none" xmlns="http://www.w3.org/2000/svg">
<path d="M8.33325 35.6114V23.2371H11.6666V35.6114H8.33325ZM18.3333 35.6114V23.2371H21.6666V35.6114H18.3333ZM3.33325 19.7016V16.166L19.9999 7.32721L36.6666 16.166V19.7016H3.33325ZM10.7916 16.166H29.2083L19.9999 11.3047L10.7916 16.166ZM3.33325 42.6825V39.1469H23.4166C23.4721 39.7657 23.5416 40.3623 23.6249 40.9368C23.7083 41.5113 23.8333 42.0932 23.9999 42.6825H3.33325ZM28.3333 28.9823V23.2371H31.6666V27.2145L28.3333 28.9823ZM33.3333 47.9858C31.4166 47.4849 29.8263 46.3137 28.5624 44.4723C27.2985 42.6309 26.6666 40.5906 26.6666 38.3515V33.8437L33.3333 30.3081L39.9999 33.8437V38.3515C39.9999 40.5906 39.368 42.6309 38.1041 44.4723C36.8402 46.3137 35.2499 47.4849 33.3333 47.9858ZM32.1249 42.6825L37.9166 36.5837L36.1666 34.7275L32.1249 38.926L30.4999 37.2024L28.7499 39.1027L32.1249 42.6825Z" fill="white"/>
<mask id="mask0_8_178" style="mask-type:alpha" maskUnits="userSpaceOnUse" x="0" y="0" width="40" height="41">
<rect y="1.62125e-05" width="40" height="40.678" fill="#D9D9D9"/>
</mask>
<g mask="url(#mask0_8_178)">
</g>
</svg>
