<svg preserveAspectRatio="none" width="30" height="30" viewBox="0 0 30 30" fill="none" xmlns="http://www.w3.org/2000/svg">
<mask id="mask0_8_146" style="mask-type:alpha" maskUnits="userSpaceOnUse" x="0" y="0" width="30" height="30">
<rect width="30" height="30" fill="#001D34"/>
</mask>
<g mask="url(#mask0_8_146)">
<path d="M6.25 29.6251C5.5625 29.6251 4.97396 29.3803 4.48438 28.8907C3.99479 28.4012 3.75 27.8126 3.75 27.1251V9.62512C3.75 8.93762 3.99479 8.34907 4.48438 7.85949C4.97396 7.36991 5.5625 7.12512 6.25 7.12512H17.4063L14.9063 9.62512H6.25V27.1251H23.75V18.4376L26.25 15.9376V27.1251C26.25 27.8126 26.0052 28.4012 25.5156 28.8907C25.026 29.3803 24.4375 29.6251 23.75 29.6251H6.25ZM20.2188 7.84387L22 9.59386L13.75 17.8439V19.6251H15.5L23.7812 11.3439L25.5625 13.0939L16.5625 22.1251H11.25V16.8126L20.2188 7.84387ZM25.5625 13.0939L20.2188 7.84387L23.3438 4.71886C23.8438 4.21886 24.4427 3.96886 25.1406 3.96886C25.8385 3.96886 26.4271 4.21886 26.9062 4.71886L28.6563 6.50012C29.1354 6.97928 29.375 7.56261 29.375 8.25011C29.375 8.93761 29.1354 9.52095 28.6563 10.0001L25.5625 13.0939Z" fill="#001D34"/>
</g>
</svg>
