<svg preserveAspectRatio="none" width="30" height="32" viewBox="0 0 30 32" fill="none" xmlns="http://www.w3.org/2000/svg">
<mask id="mask0_8_149" style="mask-type:alpha" maskUnits="userSpaceOnUse" x="0" y="0" width="30" height="32">
<rect y="0.12894" width="30" height="31.2894" fill="#001D34"/>
</mask>
<g mask="url(#mask0_8_149)">
<path d="M15 27.5071C12.125 27.5071 9.61979 26.513 7.48437 24.5249C5.34896 22.5367 4.125 20.0542 3.8125 17.0773H6.375C6.66667 19.3371 7.63021 21.2058 9.26562 22.6833C10.901 24.1609 12.8125 24.8997 15 24.8997C17.4375 24.8997 19.5052 24.0142 21.2031 22.2433C22.901 20.4724 23.75 18.3159 23.75 15.7736C23.75 13.2313 22.901 11.0748 21.2031 9.30386C19.5052 7.53297 17.4375 6.64752 15 6.64752C13.5625 6.64752 12.2188 6.99518 10.9688 7.6905C9.71875 8.38582 8.66667 9.34189 7.8125 10.5587H11.25V13.1661H3.75V5.3438H6.25V8.40755C7.3125 7.01691 8.60938 5.94134 10.1406 5.18083C11.6719 4.42033 13.2917 4.04007 15 4.04007C16.5625 4.04007 18.026 4.34971 19.3906 4.96898C20.7552 5.58825 21.9427 6.4248 22.9531 7.47865C23.9635 8.53249 24.7656 9.77103 25.3594 11.1943C25.9531 12.6175 26.25 14.1439 26.25 15.7736C26.25 17.4033 25.9531 18.9297 25.3594 20.3529C24.7656 21.7762 23.9635 23.0147 22.9531 24.0685C21.9427 25.1224 20.7552 25.9589 19.3906 26.5782C18.026 27.1975 16.5625 27.5071 15 27.5071ZM18.5 21.2492L13.75 16.2951V9.25497H16.25V15.2521L20.25 19.424L18.5 21.2492Z" fill="#001D34"/>
</g>
</svg>
